<?xml version="1.0" standalone="no"?>
<!DOCTYPE svg PUBLIC "-//W3C//DTD SVG 20010904//EN"
 "http://www.w3.org/TR/2001/REC-SVG-20010904/DTD/svg10.dtd">
<svg version="1.0" xmlns="http://www.w3.org/2000/svg"
 width="100%" height="100%" viewBox="0 0 699.000000 591.000000"
 preserveAspectRatio="xMidYMid meet">

<g transform="translate(0.000000,591.000000) scale(0.100000,-0.100000)"
fill="#000000" stroke="none">
<path d="M2583 5155 c-37 -16 -49 -36 -69 -112 -21 -79 -76 -157 -146 -204
-60 -41 -155 -81 -224 -94 -67 -12 -111 -43 -122 -85 -8 -33 -6 -42 15 -69 21
-26 31 -31 68 -31 71 0 210 41 302 89 132 70 206 154 275 316 15 34 14 141 -2
160 -28 34 -62 44 -97 30z"/>
<path d="M2755 4813 c-9 -9 -34 -39 -55 -67 -44 -60 -86 -99 -155 -148 -76
-53 -131 -76 -290 -123 -85 -25 -141 -52 -211 -101 -70 -49 -116 -107 -169
-211 -56 -110 -139 -161 -305 -188 -84 -13 -124 -69 -93 -133 33 -68 172 -58
350 26 90 42 155 107 207 204 73 139 117 177 256 223 47 15 92 31 100 35 9 4
31 11 50 15 121 26 328 178 408 299 43 66 45 134 6 165 -32 25 -76 27 -99 4z"/>
<path d="M2195 4125 c-41 -32 -45 -95 -13 -220 55 -213 131 -350 261 -472 88
-82 119 -104 212 -152 203 -104 429 -114 715 -32 19 5 53 15 75 21 71 20 239
49 287 50 95 0 209 -38 300 -101 14 -11 41 -19 60 -19 69 0 102 54 74 122 -18
43 -106 102 -206 139 -59 22 -81 24 -225 24 -156 0 -192 -5 -335 -43 -290 -77
-371 -86 -500 -58 -83 18 -124 33 -181 67 -144 85 -219 162 -290 299 -30 57
-43 91 -80 214 -5 16 -9 42 -9 58 0 36 -34 103 -55 112 -28 10 -69 6 -90 -9z"/>
<path d="M2118 3553 c-16 -2 -36 -17 -48 -33 -31 -43 -15 -94 56 -183 75 -93
134 -150 250 -243 136 -109 139 -116 155 -409 9 -185 9 -251 -1 -335 -18 -148
-24 -159 -99 -182 -53 -16 -63 -23 -76 -54 -13 -31 -13 -38 2 -68 35 -73 161
-71 247 5 44 39 76 102 92 184 9 44 12 531 4 635 l-5 65 30 -2 c17 -1 55 -7
85 -13 132 -26 392 -27 510 -1 90 19 168 41 246 67 170 58 281 27 320 -89 23
-69 27 -578 5 -647 -19 -58 -20 -60 -83 -81 -60 -21 -88 -49 -88 -88 1 -47 53
-91 109 -91 33 0 106 26 137 48 113 81 146 338 105 817 -10 120 -22 155 -73
217 -73 88 -240 144 -355 119 -59 -13 -113 -28 -148 -42 -11 -4 -31 -10 -45
-13 -14 -4 -50 -13 -80 -22 -160 -44 -297 -53 -456 -29 -199 30 -346 83 -439
158 -75 61 -170 156 -215 215 -39 52 -98 105 -111 101 -2 -1 -16 -4 -31 -6z"/>

</g>
</svg>
